<?xml version="1.0" encoding="UTF-8" standalone="no"?>
<svg
   xmlns:dc="http://purl.org/dc/elements/1.1/"
   xmlns:cc="http://creativecommons.org/ns#"
   xmlns:rdf="http://www.w3.org/1999/02/22-rdf-syntax-ns#"
   xmlns:svg="http://www.w3.org/2000/svg"
   xmlns="http://www.w3.org/2000/svg"
   xmlns:sodipodi="http://sodipodi.sourceforge.net/DTD/sodipodi-0.dtd"
   xmlns:inkscape="http://www.inkscape.org/namespaces/inkscape"
   width="94.380409mm"
   height="37.202652mm"
   viewBox="0 0 94.38041 37.202652"
   version="1.1"
   id="svg8"
   inkscape:version="1.0.2-2 (e86c870879, 2021-01-15)"
   sodipodi:docname="arrow.svg">
  <defs
     id="defs2" />
  <sodipodi:namedview
     id="base"
     pagecolor="#ffffff"
     bordercolor="#666666"
     borderopacity="1.0"
     inkscape:pageopacity="0.0"
     inkscape:pageshadow="2"
     inkscape:zoom="2.3688077"
     inkscape:cx="155.12269"
     inkscape:cy="60.604832"
     inkscape:document-units="mm"
     inkscape:current-layer="layer1-6"
     inkscape:document-rotation="0"
     showgrid="false"
     inkscape:window-width="1920"
     inkscape:window-height="1017"
     inkscape:window-x="-8"
     inkscape:window-y="-8"
     inkscape:window-maximized="1" />
  <metadata
     id="metadata5">
    <rdf:RDF>
      <cc:Work
         rdf:about="">
        <dc:format>image/svg+xml</dc:format>
        <dc:type
           rdf:resource="http://purl.org/dc/dcmitype/StillImage" />
        <dc:title></dc:title>
      </cc:Work>
    </rdf:RDF>
  </metadata>
  <g
     inkscape:label="Layer 1"
     inkscape:groupmode="layer"
     id="layer1"
     transform="translate(-31.789915,-100.0609)">
    <g
       inkscape:label="Layer 1"
       id="layer1-6"
       transform="rotate(-36.564708,80.649012,101.79408)">
      <circle
         id="path891"
         style="fill:#ff0000;stroke:#000000;stroke-width:0.264583"
         cx="52.122917"
         cy="124.61875"
         r="0.011655722" />
      <g
         id="g909"
         transform="translate(-5.0928486,6.8663584)">
        <path
           style="fill:none;stroke:#aa4465;stroke-width:0.377;stroke-linecap:butt;stroke-linejoin:miter;stroke-miterlimit:4;stroke-dasharray:none;stroke-opacity:1"
           d="m 38.882121,76.406551 c -6.145262,8.674163 -1.798703,23.002963 7.527763,27.852729 9.694249,5.04101 23.701434,6.27943 33.373081,0.75277 1.992425,-1.13852 5.375742,-3.24636 6.364464,-5.388589 1.200787,-2.601707 0.844238,-7.398181 -3.353359,-8.161383 -13.12441,-2.386256 -17.145418,14.736102 -14.30275,24.590702 0.757955,2.62757 1.679434,5.29749 3.262033,7.52775 2.569069,3.62043 6.082619,6.40818 9.786091,9.03332 3.703472,2.62514 8.011561,4.74201 12.295347,6.52406 13.136469,5.46477 11.366269,5.52475 11.366269,5.52475"
           id="path993"
           sodipodi:nodetypes="csssssazsc" />
        <path
           style="fill:none;stroke:#aa4465;stroke-width:0.376388px;stroke-linecap:butt;stroke-linejoin:miter;stroke-opacity:1"
           d="m 105.20106,144.66266 -8.460813,2.44161 8.460813,-2.44161 -2.28804,-8.03246 z"
           id="path1021"
           sodipodi:nodetypes="ccccc" />
      </g>
      <path
         style="fill:none;stroke:#000000;stroke-width:0.264583px;stroke-linecap:butt;stroke-linejoin:miter;stroke-opacity:1"
         d="m 120.48951,124.34645 c 0,0 0,0 0,0 z"
         id="path1023" />
    </g>
  </g>
</svg>
